# xmcd
#
# Track frame offsets: 
#        150
#        11899
#        23412
#        36644
#        53090
#        66843
#        81240
#        90280
#        114219
#        128123
#        139156
#        153547
#
# Disc length: 2271 seconds
#
# Revision: 0
# Processed by: cddbd v1.5.2PL0 Copyright (c) Steve Scherf et al.
# Submitted via: ExactAudioCopy v0.95b4
#
DISCID=9608dd0c
DTITLE=Adam Scramstad - No Sun Around Blues
DYEAR=2006
DGENRE=Blues
TTITLE0=Rising Sun Shine On
TTITLE1=I Ain't Gone
TTITLE2=No Sun Around Blues
TTITLE3=Candy Man
TTITLE4=Silver City
TTITLE5=Blues For Tracy
TTITLE6=The Death Of The Cardwell Hills Chickens
TTITLE7=Death Don't Have No Mercy
TTITLE8=Mean Old Bedbug Blues
TTITLE9=101 Is A Hard Road To Travel
TTITLE10=Wabash Rag
TTITLE11=For Hugh
EXTD=
EXTT0=
EXTT1=
EXTT2=
EXTT3=
EXTT4=
EXTT5=
EXTT6=
EXTT7=
EXTT8=
EXTT9=
EXTT10=
EXTT11=
PLAYORDER=
